<svg xmlns="http://www.w3.org/2000/svg" width="59" height="59" viewBox="0 0 59 59"><path d="M59 39V13H11V5a1 1 0 00-1-1H7.858c-.447-1.72-2-3-3.858-3-2.206 0-4 1.794-4 4s1.794 4 4 4c1.858 0 3.411-1.28 3.858-3H9v42a1 1 0 001 1h7.031C15.806 49.912 15 51.359 15 53c0 2.757 2.243 5 5 5s5-2.243 5-5c0-1.641-.806-3.088-2.031-4h18.062C39.806 49.912 39 51.359 39 53c0 2.757 2.243 5 5 5s5-2.243 5-5c0-1.641-.806-3.088-2.031-4H53a1 1 0 100-2H11v-8h48zM4 7c-1.103 0-2-.897-2-2s.897-2 2-2c.737 0 1.375.405 1.722 1H5a1 1 0 100 2h.722C5.375 6.595 4.737 7 4 7zm16 49c-1.654 0-3-1.346-3-3s1.346-3 3-3 3 1.346 3 3-1.346 3-3 3zm24 0c-1.654 0-3-1.346-3-3s1.346-3 3-3 3 1.346 3 3-1.346 3-3 3zm13-19H11V15h46v22z"/><circle cx="31" cy="20" r="1"/><circle cx="34" cy="17" r="1"/><circle cx="34" cy="23" r="1"/><circle cx="37" cy="20" r="1"/><circle cx="25" cy="20" r="1"/><circle cx="28" cy="17" r="1"/><circle cx="28" cy="23" r="1"/><circle cx="13" cy="20" r="1"/><circle cx="19" cy="20" r="1"/><circle cx="16" cy="17" r="1"/><circle cx="22" cy="17" r="1"/><circle cx="16" cy="23" r="1"/><circle cx="22" cy="23" r="1"/><circle cx="55" cy="20" r="1"/><circle cx="40" cy="17" r="1"/><circle cx="40" cy="23" r="1"/><circle cx="43" cy="20" r="1"/><circle cx="49" cy="20" r="1"/><circle cx="31" cy="26" r="1"/><circle cx="37" cy="26" r="1"/><circle cx="25" cy="26" r="1"/><circle cx="13" cy="26" r="1"/><circle cx="19" cy="26" r="1"/><circle cx="55" cy="26" r="1"/><circle cx="43" cy="26" r="1"/><circle cx="49" cy="26" r="1"/><circle cx="46" cy="17" r="1"/><circle cx="52" cy="17" r="1"/><circle cx="46" cy="23" r="1"/><circle cx="52" cy="23" r="1"/><circle cx="31" cy="32" r="1"/><circle cx="34" cy="29" r="1"/><circle cx="34" cy="35" r="1"/><circle cx="37" cy="32" r="1"/><circle cx="25" cy="32" r="1"/><circle cx="28" cy="29" r="1"/><circle cx="28" cy="35" r="1"/><circle cx="13" cy="32" r="1"/><circle cx="19" cy="32" r="1"/><circle cx="16" cy="29" r="1"/><circle cx="22" cy="29" r="1"/><circle cx="16" cy="35" r="1"/><circle cx="22" cy="35" r="1"/><circle cx="55" cy="32" r="1"/><circle cx="40" cy="29" r="1"/><circle cx="40" cy="35" r="1"/><circle cx="43" cy="32" r="1"/><circle cx="49" cy="32" r="1"/><circle cx="46" cy="29" r="1"/><circle cx="52" cy="29" r="1"/><circle cx="46" cy="35" r="1"/><circle cx="52" cy="35" r="1"/></svg>