<svg xmlns="http://www.w3.org/2000/svg" width="256" height="256"><g stroke-width=".394"><path d="M132.708 3.662C137.652 1.67 142.94 1.258 148.09.159c1.717 6.661.961 13.666.343 20.396-.961 8.79-2.334 17.58-4.807 26.095 2.473-3.022 5.563-5.837 9.477-6.936 7.21-2.198 14.902.48 20.807 4.738-3.09-1.442-6.317-3.021-9.82-2.747-7.553.55-14.146 4.807-20.532 8.447-.893.48-1.786.893-2.61 1.373.069-.55.206-1.648.344-2.197 1.51-9.82 1.716-19.777 2.746-29.597.481-5.357 3.365-10.164 3.571-15.589-2.61.138-5.15.481-7.69.824-2.198.275-4.808.344-6.456 1.992-.755 1.167-.48 2.678-.55 4.051.55 15.245-2.265 30.765-9.201 44.43-11.194-2.54-20.945-9.064-32.07-11.742-5.15-1.236-10.575-1.442-15.657-.069-4.6 1.168-8.652 4.19-10.85 8.378-2.334 4.12-3.433 8.927-6.455 12.635-1.58 2.06-3.983 3.228-6.249 4.395-1.923.824-3.914 1.511-5.7 2.61-7.69 4.6-11.536 13.322-13.39 21.769-2.747 13.39-2.13 27.193-.275 40.653 2.266 15.108 6.592 29.94 13.116 43.812 3.708 7.417 7.554 14.97 13.391 21.082 3.296 3.64 5.906 7.76 8.584 11.88 6.043 9.683 11.125 20.12 19.296 28.293 4.533 4.463 9.82 8.446 16.138 9.82 6.112 1.373 12.43 0 18.198-2.13 1.991-.686 3.846-1.716 5.974-2.06 2.404-.205 4.739.55 7.005 1.374 5.768 2.472 11.193 6.386 17.786 6.25 9.888-.138 20.12-1.855 28.498-7.349 7.897-5.013 14.558-12.223 18.198-20.944 5.013-11.88 9.545-23.898 13.116-36.259 4.876-15.45 8.172-31.451 9.957-47.589 1.236-11.193 1.03-22.455.962-33.717-.138-4.052-.412-8.103-.893-12.086-.755-8.035-2.61-16.07-6.249-23.348-3.502-6.936-9.957-12.636-17.648-14.078-4.601-1.03-9.34 0-13.185 2.678a21.898 21.898 0 01-4.12.824c-2.404-3.708-2.747-8.24-4.464-12.223a53.281 53.281 0 00-2.198-3.228c3.503 2.884 6.455 6.387 8.516 10.438 6.935 1.099 14.077-.55 20.944 1.099 11.194 4.532 20.396 14.627 22.524 26.713 4.19 26.782.481 54.181-6.317 80.208-3.64 14.352-8.035 28.43-11.88 42.713-2.541 9.133-5.357 18.404-10.713 26.37-4.052 6.18-9.683 11.193-15.863 15.176-7.829 4.944-17.03 8.79-26.439 7.966-9.064-.687-16.275-7.829-25.408-8.172-4.532-.206-7.897 3.159-12.086 4.326-5.356 1.649-11.262 3.16-16.824 1.236-8.172-2.746-14.97-8.446-20.67-14.764-3.503-4.051-6.799-8.515-8.31-13.665-1.51-5.013-4.67-9.27-7.965-13.254-5.357-6.524-11.674-12.155-16.413-19.228-7.073-10.438-11.674-22.386-14.833-34.541-3.708-14.696-5.425-29.94-5.013-45.117.344-10.163 1.1-20.67 5.357-30.078 2.197-4.807 5.63-9.408 10.712-11.33 2.885-1.168 5.7-2.816 7.623-5.357 3.845-4.738 4.6-11.125 7.897-16.138 3.159-5.219 8.79-8.858 14.833-9.545 9.751-1.305 19.503 1.03 28.704 4.189 5.425 1.854 10.576 4.326 15.52 7.073 2.266 1.305 4.12-1.305 5.013-3.09 2.747-5.7 3.708-12.018 4.738-18.13 1.236-7.485 0-15.244 1.923-22.66.275-1.58.893-3.297 2.61-3.846z" fill="#010100" stroke="#010100" stroke-width=".27056374000000005"/><path d="M139.78 4.898c2.542-.344 5.151-.618 7.692-.824-.206 5.425-3.022 10.232-3.57 15.588-1.1 9.82-1.237 19.777-2.748 29.597-1.03 2.541-1.58 5.22-1.373 7.897-.344 3.365-1.717 6.524-2.953 9.614-.137 1.992-.343 4.807 2.06 5.563 4.738 1.922 9.82 2.54 14.833 3.433-3.708.206-6.524 2.747-9.82 4.12-4.876 2.267-9.957 4.876-15.52 4.601-3.983-.274-7.897-1.579-11.468-3.364-2.472-1.168-2.746-4.739-1.304-6.799 1.785-1.785 4.395-2.403 6.317-3.983 1.168-1.236 1.786-2.815 2.472-4.326 2.541-7.21 6.18-14.009 8.172-21.425 2.953-10.644 4.327-21.838 9.546-31.658 1.442-2.472 2.884-4.944 3.983-7.622-2.06-.138-4.19-.275-6.318-.412z" fill="#539a34" stroke="#539a34" stroke-width=".27056374000000005"/><path d="M133.326 6.958c1.648-1.717 4.257-1.717 6.455-1.992 2.129.138 4.189.275 6.318.412-1.03 2.679-2.541 5.15-3.983 7.623-5.22 9.82-6.593 21.082-9.546 31.657-1.991 7.417-5.63 14.215-8.172 21.426-.618 1.51-1.236 3.158-2.472 4.326-1.922 1.648-4.532 2.266-6.317 3.983-1.511 2.06-1.236 5.63 1.304 6.798 3.571 1.786 7.485 3.09 11.468 3.365 5.563.275 10.644-2.335 15.52-4.6 3.228-1.443 6.112-3.984 9.82-4.121 2.404.48 5.15.687 7.073 2.403-3.845 2.541-8.79 1.648-12.91 3.571-8.035 3.708-16.344 6.936-25.065 8.31-4.807.823-9.34-1.237-13.734-2.885-4.807-2.06-9.683-4.257-13.528-7.828-1.305-1.03-1.1-2.678-1.305-4.12 5.7-2.404 12.498-1.923 17.511-6.112 5.15-3.365 8.859-8.447 11.743-13.803 6.936-13.666 9.751-29.185 9.202-44.43.137-1.305-.138-2.884.618-3.983z" fill="#2f8a0f" stroke="#2f8a0f" stroke-width=".27056374000000005"/><path d="M143.489 50.152c6.455-3.64 12.979-7.897 20.533-8.447 3.502-.274 6.73 1.305 9.82 2.747l.412.206.206.275c.686 1.099 1.51 2.129 2.197 3.227-.206 2.953.756 5.769 1.717 8.516-1.717 1.03-3.434 2.06-5.013 3.296-3.846 2.953-6.592 7.21-10.644 9.957-4.601 3.022-10.575 2.747-15.657 1.305-3.502-1.099-7.417-1.717-10.163-4.395 1.236-3.159 2.61-6.25 2.952-9.614.825-2.54 1.992-4.944 3.64-7.073m11.537-.069c-3.09 3.502-7.005 6.455-8.79 10.919 1.923-.412 3.777-1.03 5.356-2.198 3.228-2.266 7.554-2.54 10.232-5.562 1.374-1.58 2.884-3.227 3.296-5.288.275-1.236-1.167-2.403-2.334-1.991-2.885.755-5.769 1.854-7.76 4.12z" fill="#ffd201" stroke="#ffd201" stroke-width=".27056374000000005"/><path d="M75.848 43.56c5.082-1.374 10.575-1.168 15.657.068 11.125 2.747 20.876 9.202 32.07 11.743-2.885 5.356-6.593 10.438-11.743 13.803.137-.344.343-.962.48-1.305-5.493 1.099-11.056 1.854-16.412 3.296-3.022.893-6.661 1.992-8.035 5.15 0 2.267 1.786 4.052 3.297 5.563 4.944 4.464 11.124 7.21 16.824 10.644 3.571 2.06 5.082 7.21 9.614 7.485 3.708-.343 7.142-2.06 10.575-3.502 6.318-3.365 12.567-6.867 19.228-9.614 6.043-1.992 12.567-5.15 18.885-2.61 4.395 2.13 9.064 4.464 11.811 8.79 4.327 6.25 7.691 13.048 10.988 19.846 7.69 17.649 11.193 36.808 12.841 55.83.48 5.15-.206 10.37.755 15.45 2.404-3.227 3.228-7.347 3.434-11.261.343-8.24.137-16.55-.893-24.722-1.58-16.55-3.227-33.374-9.27-48.962-1.58-4.12-3.16-8.378-5.906-11.88a39.468 39.468 0 00-9.957-8.516c-.962-.755-2.541-1.236-2.335-2.746-.206-4.258 1.854-8.241 4.532-11.469 1.374-1.579 2.541-3.227 3.022-5.287 3.845-2.678 8.584-3.708 13.185-2.678 7.76 1.442 14.214 7.21 17.648 14.077 3.64 7.21 5.494 15.245 6.25 23.348-.55 10.232 0 20.464-.207 30.696.069 5.288.069 10.576-.824 15.795-1.167 12.154-3.57 24.24-6.661 36.052-1.03 3.57-2.335 7.142-2.335 10.919-3.57 12.36-8.172 24.378-13.116 36.258-3.64 8.653-10.3 15.932-18.198 20.945-8.446 5.425-18.678 7.141-28.498 7.347-6.524.206-12.018-3.776-17.786-6.249-1.717-1.236-3.022-2.952-3.502-5.013-1.649-6.043-3.434-12.154-3.64-18.472-.206-9.202-.206-18.404 1.442-27.469 3.64-23.828 11.262-47.177 10.575-71.486-.343-5.768-.755-11.537-1.991-17.168-.824-3.64-1.099-7.485-3.228-10.644-.96 6.73-.549 13.528-.618 20.327 0 12.567.687 25.202-.686 37.7-2.198 22.387-7.142 44.362-12.567 66.13-1.374 5.769-3.571 11.95-8.653 15.52-4.6 3.708-10.369 5.974-16.343 5.837-2.885.206-5.494-1.167-8.035-2.266-8.172-8.172-13.253-18.61-19.296-28.293.343-3.57-.824-7.004-1.923-10.369-5.013-17.992-8.172-37.082-4.807-55.692.961-6.936 2.884-13.734 5.15-20.327 1.923-6.936 4.944-13.46 7.417-20.189 3.364-6.043 8.446-10.85 12.086-16.687.755-1.236 1.236-2.678.961-4.12-.687-.344-1.373-.756-2.129-.481-2.61.687-4.807 2.403-6.935 4.12-4.67 3.983-9.065 8.378-12.43 13.597-2.266 2.953-3.64 6.386-5.768 9.34-1.511 2.197-4.464 1.098-6.524.48-3.983-1.167-6.592-4.807-8.31-8.378-2.746-6.112-2.746-12.979-2.197-19.502.206-3.915 1.786-7.554 3.915-10.782 1.785-1.098 3.776-1.785 5.7-2.61 4.257 0 8.514.687 12.703 1.374 4.876.48 9.752 1.099 14.627 1.442-2.06-4.6-5.974-8.24-7.141-13.322-.687-3.09-.687-6.524.618-9.477.755-1.854 1.716-3.64 2.61-5.425m2.403 5.838c-1.168 1.442-1.786 4.257.137 5.356 3.09 2.335 7.142 1.991 10.781 1.648 3.708-.55 7.485-.618 11.056-1.854-4.807-2.816-9.339-6.799-15.107-7.28-2.473-.274-5.013.55-6.867 2.13m115.71 11.399c-2.678 1.305-5.356 2.953-7.279 5.288 3.228.961 6.73 1.373 9.408 3.502 4.464 3.021 8.035 7.279 10.438 12.155 2.404 4.12 3.09 8.927 4.532 13.39 2.335 7.142 1.786 14.833 2.816 22.181.618-1.785 1.236-3.57 1.442-5.425 1.51-10.163 1.923-20.601-.069-30.696-1.03-3.57-2.747-6.867-4.326-10.232-2.266-3.296-4.395-7.004-7.966-9.133-2.54-1.785-6.043-1.442-8.996-1.03M54.835 75.492c-2.404 2.952-4.327 6.523-4.945 10.369-.48 2.403.618 5.837 3.709 5.287 5.493-1.51 9.476-5.905 13.322-9.888 1.854-2.129 4.463-3.502 5.906-6.043-5.975-.55-12.224-1.58-17.992.275M160.93 91.698c-2.815.618-4.944 2.678-6.867 4.67-1.167 1.236-2.61 2.952-1.922 4.738 1.373 3.64 3.708 6.798 6.111 9.82 3.777 4.395 9.546 5.905 14.353 8.721 2.815 1.305 5.63 2.747 8.652 3.502 1.236.412 2.678-.274 3.022-1.58.892-6.866-2.541-13.115-5.013-19.296-1.854-3.227-5.15-5.356-7.554-8.172-2.678-3.159-7.142-2.884-10.782-2.403m-42.164 21.7c-.412.755-1.167 1.51-.892 2.54a177.598 177.598 0 011.236 24.173c.206 17.236-2.129 34.335-3.983 51.435-1.099 9.339-5.974 18.129-4.876 27.743 2.335-3.297 3.365-7.21 4.876-10.919 1.854-4.532 2.266-9.477 3.64-14.146 2.403-8.584 3.776-17.374 5.768-26.027.961-4.944 1.167-10.026 1.923-15.039 1.03-9.82.892-19.64.961-29.528 0-2.472-.893-4.876-2.335-6.867-1.58-1.992-4.12-2.541-6.318-3.365z" fill="#ffd202" stroke="#ffd202" stroke-width=".27056374000000005"/><path d="M64.998 51.937c2.198-4.189 6.25-7.21 10.85-8.378-.893 1.786-1.854 3.571-2.678 5.425-1.305 2.953-1.305 6.318-.618 9.477 1.099 5.013 5.013 8.653 7.142 13.322-4.876-.343-9.752-.961-14.627-1.442-4.19-.687-8.447-1.373-12.704-1.373 2.266-1.099 4.6-2.335 6.249-4.395 2.952-3.708 4.051-8.515 6.386-12.636zM176.657 48.16c1.717 3.983 2.06 8.447 4.464 12.224 1.373-.137 2.815-.412 4.12-.824-.48 1.991-1.717 3.708-3.021 5.287-2.679 3.16-4.739 7.21-4.533 11.469-.206 1.51 1.374 1.991 2.335 2.746 3.777 2.267 7.21 5.082 9.957 8.516 2.747 3.502 4.327 7.76 5.906 11.88 6.043 15.588 7.691 32.412 9.27 48.962 1.03 8.24 1.305 16.481.893 24.722-.274 3.983-1.03 8.034-3.433 11.262-.893-5.082-.275-10.3-.756-15.451-1.648-19.09-5.15-38.25-12.841-55.83-3.296-6.798-6.73-13.597-10.987-19.846-2.679-4.257-7.348-6.66-11.812-8.79-6.386-2.54-12.91.618-18.884 2.61-6.661 2.678-12.91 6.249-19.228 9.614-3.365 1.442-6.799 3.159-10.576 3.502-4.6-.275-6.043-5.425-9.614-7.485-5.7-3.434-11.88-6.18-16.824-10.644-1.51-1.51-3.365-3.296-3.296-5.562 1.373-3.16 4.944-4.327 8.034-5.15 5.425-1.374 10.988-2.198 16.413-3.297-.138.343-.344.961-.481 1.305-5.013 4.189-11.811 3.708-17.511 6.112.206 1.442 0 3.158 1.305 4.12 3.845 3.57 8.72 5.837 13.528 7.828 4.395 1.648 8.927 3.708 13.734 2.884 8.79-1.373 17.1-4.6 25.065-8.309 4.12-1.923 9.065-1.03 12.91-3.57-1.923-1.717-4.67-1.923-7.073-2.404-4.944-.893-10.095-1.58-14.833-3.434-2.403-.824-2.197-3.57-2.06-5.562 2.747 2.678 6.592 3.296 10.163 4.395 5.15 1.373 11.056 1.648 15.657-1.305 4.052-2.747 6.73-7.004 10.644-9.957 1.58-1.236 3.296-2.266 5.013-3.296-.892-2.953-1.854-5.769-1.648-8.722zM33.272 93.277c1.785-8.446 5.7-17.167 13.39-21.768-2.128 3.227-3.707 6.935-3.913 10.78-.55 6.525-.55 13.46 2.197 19.504 1.717 3.57 4.326 7.21 8.31 8.377 2.06.618 5.012 1.717 6.523-.48 2.129-3.022 3.57-6.455 5.768-9.34 3.365-5.219 7.76-9.614 12.43-13.596 2.129-1.649 4.326-3.434 6.936-4.12.755-.275 1.442.137 2.128.48.275 1.442-.206 2.884-.961 4.12-3.708 5.837-8.79 10.644-12.086 16.687-2.54 6.73-5.494 13.254-7.417 20.19-2.334 6.592-4.188 13.39-5.15 20.326-3.365 18.61-.206 37.632 4.807 55.692 1.099 3.365 2.266 6.799 1.923 10.37-2.678-4.12-5.288-8.24-8.584-11.88-5.768-6.043-9.683-13.597-13.39-21.082-6.525-13.803-10.92-28.636-13.117-43.812-1.923-13.254-2.61-27.057.206-40.448z" fill="#e0bb14" stroke="#e0bb14" stroke-width=".27056374000000005"/><path d="M155.026 50.083c1.991-2.266 4.944-3.365 7.76-4.12 1.098-.412 2.61.755 2.334 1.991-.412 2.06-1.922 3.709-3.296 5.288-2.678 3.022-7.004 3.296-10.232 5.562-1.58 1.1-3.433 1.786-5.356 2.198 1.785-4.464 5.7-7.417 8.79-10.919zM193.962 60.796c3.022-.48 6.455-.755 9.134 1.099 3.57 2.128 5.63 5.837 7.965 9.133 1.58 3.365 3.297 6.661 4.327 10.232 1.991 10.095 1.58 20.533.068 30.696-.274 1.854-.824 3.64-1.442 5.425-1.099-7.417-.48-15.04-2.815-22.18-1.442-4.533-2.13-9.271-4.533-13.392-2.403-4.807-5.974-9.133-10.438-12.155-2.678-2.128-6.18-2.54-9.408-3.502 1.717-2.403 4.395-4.051 7.142-5.356zM118.767 113.398c2.198.755 4.739 1.373 6.25 3.296 1.442 1.992 2.334 4.395 2.334 6.867 0 9.82.069 19.709-.961 29.529-.755 5.013-1.03 10.026-1.923 15.039-1.991 8.652-3.365 17.442-5.768 26.026-1.374 4.67-1.786 9.614-3.64 14.146-1.51 3.709-2.54 7.623-4.875 10.919-1.1-9.545 3.845-18.404 4.875-27.743 1.786-17.1 4.19-34.198 3.983-51.435a178.164 178.164 0 00-1.236-24.172c-.206-.893.55-1.648.961-2.472z" fill="#ffea4e" stroke="#ffea4e" stroke-width=".27056374000000005"/><path d="M78.252 49.397c1.854-1.58 4.394-2.404 6.867-2.13 5.768.481 10.3 4.464 15.107 7.28-3.57 1.236-7.348 1.305-11.056 1.854-3.64.343-7.76.687-10.781-1.648-1.923-1.099-1.305-3.914-.137-5.356z" fill="#ffe94f" stroke="#ffe94f" stroke-width=".27056374000000005"/><path d="M139.78 57.294c-.205-2.747.344-5.425 1.374-7.897-.068.549-.206 1.648-.343 2.197.893-.48 1.785-.893 2.61-1.373-1.58 2.06-2.747 4.463-3.64 7.073z" fill="#9da617" stroke="#9da617" stroke-width=".27056374000000005"/><path d="M54.835 75.492c5.768-1.786 12.017-.756 17.992-.275-1.374 2.472-4.052 3.914-5.906 6.043-3.846 3.983-7.829 8.378-13.322 9.888-3.022.55-4.19-2.884-3.709-5.287.618-3.846 2.541-7.417 4.945-10.37zM160.931 91.698c3.64-.48 8.104-.756 10.713 2.335 2.404 2.815 5.7 4.944 7.554 8.172 2.54 6.111 5.906 12.429 5.013 19.296-.343 1.305-1.717 1.992-3.022 1.58-3.021-.756-5.837-2.198-8.652-3.503-4.807-2.815-10.644-4.257-14.352-8.72-2.404-3.022-4.739-6.181-6.112-9.82-.687-1.855.755-3.503 1.923-4.74 1.991-1.922 4.12-3.982 6.935-4.6z" fill="#ffea4f" stroke="#ffea4f" stroke-width=".27056374000000005"/><path d="M222.323 94.239c.55 4.051.756 8.103.893 12.086.137 11.262.275 22.524-.961 33.717-1.786 16.138-5.013 32.138-9.958 47.59 0-3.778 1.237-7.348 2.335-10.92 3.022-11.81 5.494-23.897 6.661-36.052.893-5.219.893-10.506.824-15.794.206-10.163-.343-20.395.206-30.627z" fill="#cfb020" stroke="#cfb020" stroke-width=".27056374000000005"/><path d="M134.287 95.68c2.129 3.16 2.472 7.005 3.228 10.645 1.236 5.63 1.648 11.4 1.991 17.168.687 24.31-6.936 47.657-10.575 71.486-1.648 9.065-1.717 18.267-1.442 27.469.206 6.317 1.991 12.429 3.64 18.472.48 2.06 1.853 3.777 3.501 5.013-2.266-.824-4.6-1.58-7.004-1.373-2.06.343-3.983 1.304-5.974 2.06-5.769 2.197-12.086 3.502-18.198 2.129-6.318-1.374-11.606-5.357-16.138-9.82 2.541 1.167 5.15 2.54 8.035 2.266 5.974.068 11.742-2.13 16.343-5.837 5.082-3.571 7.28-9.752 8.653-15.52 5.494-21.769 10.37-43.743 12.567-66.13 1.373-12.498.686-25.134.686-37.7.138-6.73-.343-13.597.687-20.327z" fill="#e0bb13" stroke="#e0bb13" stroke-width=".27056374000000005"/></g></svg>